<svg width="256" height="256" viewBox="0 0 256 256" fill="none" xmlns="http://www.w3.org/2000/svg">
<path fill-rule="evenodd" clip-rule="evenodd" d="M25.0282 230.97C9.56221 215.504 0 194.145 0 170.552V6.58111C0 2.64888 3.43933 -0.396128 7.34964 0.0420027C39.2675 3.68944 64.0766 30.7769 64.0985 63.6695V170.552C64.0985 176.444 66.4973 181.779 70.3528 185.645C74.2193 189.512 79.5536 191.899 85.4464 191.899H192.328C225.221 191.921 252.32 216.72 255.956 248.648C256.405 252.559 253.36 255.998 249.417 255.998H85.4464C61.8531 255.998 40.4833 246.436 25.0282 230.97Z" fill="#9FCF01"/>
<path d="M197.632 106.454C197.632 133.005 176.109 154.528 149.558 154.528C123.008 154.528 101.484 133.005 101.484 106.454C101.484 79.9034 123.008 58.3802 149.558 58.3802C176.109 58.3802 197.632 79.9034 197.632 106.454Z" fill="#FD6D41"/>
</svg>
